<mxfile host="app.diagrams.net" modified="2024-03-20T16:45:10.651Z" agent="Mozilla/5.0 (Windows NT 10.0; Win64; x64) AppleWebKit/537.36 (KHTML, like Gecko) Chrome/122.0.0.0 Safari/537.36 Edg/122.0.0.0" etag="rfKMF__pznFQXwdvK4fF" version="24.0.7" type="device">
  <diagram name="Страница — 1" id="eH_aoFP1VSr190OQszzF">
    <mxGraphModel dx="1307" dy="572" grid="1" gridSize="10" guides="1" tooltips="1" connect="1" arrows="1" fold="1" page="1" pageScale="1" pageWidth="827" pageHeight="1169" math="0" shadow="0">
      <root>
        <mxCell id="0" />
        <mxCell id="1" parent="0" />
        <mxCell id="8wMrHW8m37VDWh_IlPlE-1" value="Зарегистрированный&lt;br&gt;&amp;nbsp;пользователь" style="shape=umlActor;verticalLabelPosition=bottom;verticalAlign=top;html=1;outlineConnect=0;" parent="1" vertex="1">
          <mxGeometry x="80" y="230" width="30" height="60" as="geometry" />
        </mxCell>
        <mxCell id="8wMrHW8m37VDWh_IlPlE-2" value="" style="ellipse;whiteSpace=wrap;html=1;" parent="1" vertex="1">
          <mxGeometry x="240" y="10" width="150" height="90" as="geometry" />
        </mxCell>
        <mxCell id="8wMrHW8m37VDWh_IlPlE-3" value="" style="ellipse;whiteSpace=wrap;html=1;" parent="1" vertex="1">
          <mxGeometry x="290" y="100" width="150" height="90" as="geometry" />
        </mxCell>
        <mxCell id="8wMrHW8m37VDWh_IlPlE-5" value="" style="ellipse;whiteSpace=wrap;html=1;" parent="1" vertex="1">
          <mxGeometry x="300" y="215" width="150" height="90" as="geometry" />
        </mxCell>
        <mxCell id="8wMrHW8m37VDWh_IlPlE-6" value="" style="endArrow=classic;html=1;rounded=0;entryX=0;entryY=0.5;entryDx=0;entryDy=0;exitX=0.5;exitY=0.5;exitDx=0;exitDy=0;exitPerimeter=0;" parent="1" source="8wMrHW8m37VDWh_IlPlE-1" target="8wMrHW8m37VDWh_IlPlE-2" edge="1">
          <mxGeometry width="50" height="50" relative="1" as="geometry">
            <mxPoint x="390" y="270" as="sourcePoint" />
            <mxPoint x="440" y="220" as="targetPoint" />
          </mxGeometry>
        </mxCell>
        <mxCell id="8wMrHW8m37VDWh_IlPlE-7" value="" style="endArrow=classic;html=1;rounded=0;entryX=0;entryY=0.5;entryDx=0;entryDy=0;exitX=0.5;exitY=0.5;exitDx=0;exitDy=0;exitPerimeter=0;" parent="1" source="8wMrHW8m37VDWh_IlPlE-1" target="8wMrHW8m37VDWh_IlPlE-3" edge="1">
          <mxGeometry width="50" height="50" relative="1" as="geometry">
            <mxPoint x="155" y="100" as="sourcePoint" />
            <mxPoint x="255" y="95" as="targetPoint" />
          </mxGeometry>
        </mxCell>
        <mxCell id="8wMrHW8m37VDWh_IlPlE-8" value="" style="endArrow=classic;html=1;rounded=0;entryX=0;entryY=0.5;entryDx=0;entryDy=0;exitX=0.5;exitY=0.5;exitDx=0;exitDy=0;exitPerimeter=0;" parent="1" source="8wMrHW8m37VDWh_IlPlE-1" target="8wMrHW8m37VDWh_IlPlE-5" edge="1">
          <mxGeometry width="50" height="50" relative="1" as="geometry">
            <mxPoint x="165" y="110" as="sourcePoint" />
            <mxPoint x="265" y="105" as="targetPoint" />
          </mxGeometry>
        </mxCell>
        <mxCell id="8wMrHW8m37VDWh_IlPlE-9" value="" style="ellipse;whiteSpace=wrap;html=1;" parent="1" vertex="1">
          <mxGeometry x="300" y="330" width="150" height="90" as="geometry" />
        </mxCell>
        <mxCell id="8wMrHW8m37VDWh_IlPlE-10" value="" style="ellipse;whiteSpace=wrap;html=1;" parent="1" vertex="1">
          <mxGeometry x="240" y="440" width="150" height="90" as="geometry" />
        </mxCell>
        <mxCell id="8wMrHW8m37VDWh_IlPlE-11" value="" style="endArrow=classic;html=1;rounded=0;entryX=0.5;entryY=0;entryDx=0;entryDy=0;exitX=0.5;exitY=0.5;exitDx=0;exitDy=0;exitPerimeter=0;" parent="1" source="8wMrHW8m37VDWh_IlPlE-1" target="8wMrHW8m37VDWh_IlPlE-10" edge="1">
          <mxGeometry width="50" height="50" relative="1" as="geometry">
            <mxPoint x="155" y="195" as="sourcePoint" />
            <mxPoint x="250" y="295" as="targetPoint" />
          </mxGeometry>
        </mxCell>
        <mxCell id="8wMrHW8m37VDWh_IlPlE-12" value="" style="endArrow=classic;html=1;rounded=0;exitX=0.5;exitY=0.5;exitDx=0;exitDy=0;exitPerimeter=0;" parent="1" source="8wMrHW8m37VDWh_IlPlE-1" target="8wMrHW8m37VDWh_IlPlE-9" edge="1">
          <mxGeometry width="50" height="50" relative="1" as="geometry">
            <mxPoint x="165" y="205" as="sourcePoint" />
            <mxPoint x="260" y="305" as="targetPoint" />
          </mxGeometry>
        </mxCell>
      </root>
    </mxGraphModel>
  </diagram>
</mxfile>
